<svg id="visual" viewBox="0 0 960 540" width="960" height="540" xmlns="http://www.w3.org/2000/svg" xmlns:xlink="http://www.w3.org/1999/xlink" version="1.1"><path d="M0 121L26.7 134.8C53.3 148.7 106.7 176.3 160 191C213.3 205.7 266.7 207.3 320 200.3C373.3 193.3 426.7 177.7 480 165.7C533.3 153.7 586.7 145.3 640 150C693.3 154.7 746.7 172.3 800 179.2C853.3 186 906.7 182 933.3 180L960 178L960 541L933.3 541C906.7 541 853.3 541 800 541C746.7 541 693.3 541 640 541C586.7 541 533.3 541 480 541C426.7 541 373.3 541 320 541C266.7 541 213.3 541 160 541C106.7 541 53.3 541 26.7 541L0 541Z" fill="#ea567a"></path><path d="M0 279L26.7 280.7C53.3 282.3 106.7 285.7 160 280C213.3 274.3 266.7 259.7 320 253.5C373.3 247.3 426.7 249.7 480 258.7C533.3 267.7 586.7 283.3 640 289C693.3 294.7 746.7 290.3 800 288.2C853.3 286 906.7 286 933.3 286L960 286L960 541L933.3 541C906.7 541 853.3 541 800 541C746.7 541 693.3 541 640 541C586.7 541 533.3 541 480 541C426.7 541 373.3 541 320 541C266.7 541 213.3 541 160 541C106.7 541 53.3 541 26.7 541L0 541Z" fill="#bb375b"></path><path d="M0 382L26.7 387.7C53.3 393.3 106.7 404.7 160 405.5C213.3 406.3 266.7 396.7 320 393.7C373.3 390.7 426.7 394.3 480 402.5C533.3 410.7 586.7 423.3 640 421C693.3 418.7 746.7 401.3 800 390.5C853.3 379.7 906.7 375.3 933.3 373.2L960 371L960 541L933.3 541C906.7 541 853.3 541 800 541C746.7 541 693.3 541 640 541C586.7 541 533.3 541 480 541C426.7 541 373.3 541 320 541C266.7 541 213.3 541 160 541C106.7 541 53.3 541 26.7 541L0 541Z" fill="#8e173d"></path></svg>