<svg id="visual" viewBox="0 0 1920 4000" width="1920" height="4000" xmlns="http://www.w3.org/2000/svg" xmlns:xlink="http://www.w3.org/1999/xlink" version="1.1"><path d="M0 881L53.3 847.7C106.7 814.3 213.3 747.7 320 754.3C426.7 761 533.3 841 640 887.7C746.7 934.3 853.3 947.7 960 921C1066.7 894.3 1173.3 827.7 1280 807.7C1386.7 787.7 1493.3 814.3 1600 834.3C1706.7 854.3 1813.3 867.7 1866.7 874.3L1920 881L1920 0L1866.7 0C1813.3 0 1706.7 0 1600 0C1493.3 0 1386.7 0 1280 0C1173.3 0 1066.7 0 960 0C853.3 0 746.7 0 640 0C533.3 0 426.7 0 320 0C213.3 0 106.7 0 53.3 0L0 0Z" fill="#ea567a"></path><path d="M0 2241L53.3 2201C106.7 2161 213.3 2081 320 2067.7C426.7 2054.3 533.3 2107.7 640 2174.3C746.7 2241 853.3 2321 960 2321C1066.7 2321 1173.3 2241 1280 2207.7C1386.7 2174.3 1493.3 2187.7 1600 2194.3C1706.7 2201 1813.3 2201 1866.7 2201L1920 2201L1920 879L1866.7 872.3C1813.3 865.7 1706.7 852.3 1600 832.3C1493.3 812.3 1386.7 785.7 1280 805.7C1173.3 825.7 1066.7 892.3 960 919C853.3 945.7 746.7 932.3 640 885.7C533.3 839 426.7 759 320 752.3C213.3 745.7 106.7 812.3 53.3 845.7L0 879Z" fill="#f792a4"></path><path d="M0 3481L53.3 3461C106.7 3441 213.3 3401 320 3374.3C426.7 3347.7 533.3 3334.3 640 3341C746.7 3347.7 853.3 3374.3 960 3381C1066.7 3387.7 1173.3 3374.3 1280 3387.7C1386.7 3401 1493.3 3441 1600 3421C1706.7 3401 1813.3 3321 1866.7 3281L1920 3241L1920 2199L1866.7 2199C1813.3 2199 1706.7 2199 1600 2192.3C1493.3 2185.7 1386.7 2172.3 1280 2205.7C1173.3 2239 1066.7 2319 960 2319C853.3 2319 746.7 2239 640 2172.3C533.3 2105.7 426.7 2052.3 320 2065.7C213.3 2079 106.7 2159 53.3 2199L0 2239Z" fill="#ffc9d1"></path><path d="M0 4001L53.3 4001C106.7 4001 213.3 4001 320 4001C426.7 4001 533.3 4001 640 4001C746.7 4001 853.3 4001 960 4001C1066.7 4001 1173.3 4001 1280 4001C1386.7 4001 1493.3 4001 1600 4001C1706.7 4001 1813.3 4001 1866.7 4001L1920 4001L1920 3239L1866.7 3279C1813.3 3319 1706.7 3399 1600 3419C1493.3 3439 1386.7 3399 1280 3385.7C1173.3 3372.3 1066.7 3385.7 960 3379C853.3 3372.3 746.7 3345.7 640 3339C533.3 3332.3 426.7 3345.7 320 3372.3C213.3 3399 106.7 3439 53.3 3459L0 3479Z" fill="#ffffff"></path></svg>