<svg id="visual" viewBox="0 0 1920 4000" width="1920" height="4000" xmlns="http://www.w3.org/2000/svg" xmlns:xlink="http://www.w3.org/1999/xlink" version="1.1"><path d="M0 641L53.3 641C106.7 641 213.3 641 320 687.7C426.7 734.3 533.3 827.7 640 854.3C746.7 881 853.3 841 960 821C1066.7 801 1173.3 801 1280 821C1386.7 841 1493.3 881 1600 874.3C1706.7 867.7 1813.3 814.3 1866.7 787.7L1920 761L1920 0L1866.7 0C1813.3 0 1706.7 0 1600 0C1493.3 0 1386.7 0 1280 0C1173.3 0 1066.7 0 960 0C853.3 0 746.7 0 640 0C533.3 0 426.7 0 320 0C213.3 0 106.7 0 53.3 0L0 0Z" fill="#eddce2"></path><path d="M0 2201L53.3 2121C106.7 2041 213.3 1881 320 1887.7C426.7 1894.3 533.3 2067.7 640 2141C746.7 2214.3 853.3 2187.7 960 2154.3C1066.7 2121 1173.3 2081 1280 2067.7C1386.7 2054.3 1493.3 2067.7 1600 2047.7C1706.7 2027.7 1813.3 1974.3 1866.7 1947.7L1920 1921L1920 759L1866.7 785.7C1813.3 812.3 1706.7 865.7 1600 872.3C1493.3 879 1386.7 839 1280 819C1173.3 799 1066.7 799 960 819C853.3 839 746.7 879 640 852.3C533.3 825.7 426.7 732.3 320 685.7C213.3 639 106.7 639 53.3 639L0 639Z" fill="#f0b2c5"></path><path d="M0 3361L53.3 3341C106.7 3321 213.3 3281 320 3281C426.7 3281 533.3 3321 640 3347.7C746.7 3374.3 853.3 3387.7 960 3374.3C1066.7 3361 1173.3 3321 1280 3321C1386.7 3321 1493.3 3361 1600 3394.3C1706.7 3427.7 1813.3 3454.3 1866.7 3467.7L1920 3481L1920 1919L1866.7 1945.7C1813.3 1972.3 1706.7 2025.7 1600 2045.7C1493.3 2065.7 1386.7 2052.3 1280 2065.7C1173.3 2079 1066.7 2119 960 2152.3C853.3 2185.7 746.7 2212.3 640 2139C533.3 2065.7 426.7 1892.3 320 1885.7C213.3 1879 106.7 2039 53.3 2119L0 2199Z" fill="#ef87a2"></path><path d="M0 4001L53.3 4001C106.7 4001 213.3 4001 320 4001C426.7 4001 533.3 4001 640 4001C746.7 4001 853.3 4001 960 4001C1066.7 4001 1173.3 4001 1280 4001C1386.7 4001 1493.3 4001 1600 4001C1706.7 4001 1813.3 4001 1866.7 4001L1920 4001L1920 3479L1866.7 3465.7C1813.3 3452.3 1706.7 3425.7 1600 3392.3C1493.3 3359 1386.7 3319 1280 3319C1173.3 3319 1066.7 3359 960 3372.3C853.3 3385.7 746.7 3372.3 640 3345.7C533.3 3319 426.7 3279 320 3279C213.3 3279 106.7 3319 53.3 3339L0 3359Z" fill="#ea567a"></path></svg>