<svg xmlns="http://www.w3.org/2000/svg" version="1.1" xmlns:xlink="http://www.w3.org/1999/xlink" xmlns:svgjs="http://svgjs.dev/svgjs" viewBox="0 0 800 800" opacity="0.94"><g stroke="hsl(335, 77%, 50%)" fill="none" stroke-linecap="round"><circle r="370.5" cx="400" cy="400" stroke-width="11" stroke-dasharray="46 14" stroke-dashoffset="25" transform="rotate(76, 400, 400)" opacity="0.05"></circle><circle r="351" cx="400" cy="400" stroke-width="10" stroke-dasharray="25 43" stroke-dashoffset="25" transform="rotate(219, 400, 400)" opacity="0.10"></circle><circle r="331.5" cx="400" cy="400" stroke-width="10" stroke-dasharray="47 35" stroke-dashoffset="25" transform="rotate(261, 400, 400)" opacity="0.16"></circle><circle r="312" cx="400" cy="400" stroke-width="10" stroke-dasharray="52 23" stroke-dashoffset="25" transform="rotate(357, 400, 400)" opacity="0.21"></circle><circle r="292.5" cx="400" cy="400" stroke-width="9" stroke-dasharray="10 17" stroke-dashoffset="25" transform="rotate(326, 400, 400)" opacity="0.26"></circle><circle r="273" cx="400" cy="400" stroke-width="9" stroke-dasharray="23 35" stroke-dashoffset="25" transform="rotate(279, 400, 400)" opacity="0.31"></circle><circle r="253.5" cx="400" cy="400" stroke-width="9" stroke-dasharray="34 24" stroke-dashoffset="25" transform="rotate(328, 400, 400)" opacity="0.37"></circle><circle r="234" cx="400" cy="400" stroke-width="8" stroke-dasharray="45 45" stroke-dashoffset="25" transform="rotate(134, 400, 400)" opacity="0.42"></circle><circle r="214.5" cx="400" cy="400" stroke-width="8" stroke-dasharray="13 31" stroke-dashoffset="25" transform="rotate(341, 400, 400)" opacity="0.47"></circle><circle r="195" cx="400" cy="400" stroke-width="8" stroke-dasharray="37 35" stroke-dashoffset="25" transform="rotate(39, 400, 400)" opacity="0.53"></circle><circle r="175.5" cx="400" cy="400" stroke-width="7" stroke-dasharray="24 31" stroke-dashoffset="25" transform="rotate(260, 400, 400)" opacity="0.58"></circle><circle r="156" cx="400" cy="400" stroke-width="7" stroke-dasharray="49 27" stroke-dashoffset="25" transform="rotate(119, 400, 400)" opacity="0.63"></circle><circle r="136.5" cx="400" cy="400" stroke-width="7" stroke-dasharray="15 24" stroke-dashoffset="25" transform="rotate(357, 400, 400)" opacity="0.68"></circle><circle r="117" cx="400" cy="400" stroke-width="6" stroke-dasharray="12 24" stroke-dashoffset="25" transform="rotate(300, 400, 400)" opacity="0.74"></circle><circle r="97.5" cx="400" cy="400" stroke-width="6" stroke-dasharray="21 27" stroke-dashoffset="25" transform="rotate(276, 400, 400)" opacity="0.79"></circle><circle r="78" cx="400" cy="400" stroke-width="6" stroke-dasharray="43 39" stroke-dashoffset="25" transform="rotate(107, 400, 400)" opacity="0.84"></circle><circle r="58.5" cx="400" cy="400" stroke-width="5" stroke-dasharray="22 24" stroke-dashoffset="25" transform="rotate(317, 400, 400)" opacity="0.89"></circle><circle r="39" cx="400" cy="400" stroke-width="5" stroke-dasharray="10 47" stroke-dashoffset="25" transform="rotate(5, 400, 400)" opacity="0.95"></circle><circle r="19.5" cx="400" cy="400" stroke-width="5" stroke-dasharray="45 35" stroke-dashoffset="25" transform="rotate(245, 400, 400)" opacity="1.00"></circle></g><defs><linearGradient x1="50%" y1="0%" x2="50%" y2="100%" id="vvvortex-grad"><stop stop-color="hsl(37, 99%, 67%)" stop-opacity="1" offset="0%"></stop><stop stop-color="hsl(316, 73%, 52%)" stop-opacity="1" offset="100%"></stop></linearGradient></defs></svg>